<svg width="152" height="75" viewBox="0 0 152 75" fill="none" xmlns="http://www.w3.org/2000/svg">
<g clip-path="url(#clip0_1_6927)">
<path d="M127 0.145508C114.122 8.82801 112.752 15.1293 111.636 17.057C110.568 19.0332 109.772 26.8248 107.923 30.5991C106.058 34.422 99.2847 37.4349 97.3881 38.6984C95.5234 39.9619 92.8778 44.8701 90.7103 49.098C73.4819 48.3853 64.0309 55.3831 49.4003 64.26C54.0859 62.6887 56.3012 61.5548 56.3012 61.5548C71.3144 55.7233 78.5022 50.4911 101.102 53.585C101.277 53.585 101.404 53.6822 101.548 53.7146C102.169 54.071 102.392 54.8323 102.042 55.4641L93.4516 70.9824C93.0531 71.7438 92.2084 72.1487 91.3637 71.9706C71.155 68.1153 55.2016 74.7729 40.5391 74.9835C28.8409 75.1617 25 69.557 25 69.2978C25 69.1196 25.0956 69.0224 25.2709 69.0224C25.2709 69.0224 31.375 69.0224 41.7025 66.544C53.4325 43.8172 63.8875 35.8636 75.2669 35.8636C75.2669 35.8636 86.6941 35.8636 89.7062 45.8906C93.34 39.4598 94.2166 37.9209 94.2166 37.9209C95.0612 36.3982 99.7947 25.4155 107.987 15.0159C116.194 4.64875 122.394 2.07315 127 0.145508Z" fill="#737373"/>
</g>
<defs>
<clipPath id="clip0_1_6927">
<rect width="102" height="75" fill="white" transform="translate(25)"/>
</clipPath>
</defs>
</svg>
