<svg width="151" height="63" viewBox="0 0 151 63" fill="none" xmlns="http://www.w3.org/2000/svg">
<g clip-path="url(#clip0_1_6933)">
<g clip-path="url(#clip1_1_6933)">
<path d="M52.8871 22.9882C52.7705 26.6263 54.6043 28.2373 54.6496 29.2605C54.628 29.4687 54.5565 29.6688 54.4409 29.844C54.3254 30.0192 54.1692 30.1645 53.9854 30.2676L51.9119 31.7068C51.6436 31.8933 51.3273 32.0002 50.9999 32.0152C50.9302 32.0119 49.6732 32.3091 47.6823 27.9016C46.4676 29.405 44.9221 30.6128 43.1642 31.4327C41.4062 32.2526 39.4823 32.6628 37.5398 32.6319C34.9026 32.7749 27.7554 31.1478 28.1231 23.6034C27.8656 17.4548 33.6406 13.6352 39.6134 13.9581C40.7635 13.9613 43.1124 14.0175 47.2254 14.9652V12.4562C47.6612 8.20619 44.8441 4.90862 39.9665 5.40334C39.5777 5.40494 36.8238 5.32303 32.5407 7.02723C31.3484 7.57013 31.1962 7.48018 30.7993 7.48018C29.5989 7.48018 30.093 4.03002 30.323 3.59313C31.167 2.56515 36.1321 0.645723 41.0049 0.673028C44.263 0.387326 47.5036 1.38434 50.0263 3.44857C51.0518 4.58591 51.8341 5.91753 52.3261 7.36301C52.8181 8.8085 53.0095 10.3379 52.8887 11.8587L52.8871 22.9882ZM38.8876 28.1907C44.1411 28.1153 46.3653 24.9831 46.8723 23.2966C47.2708 21.6824 47.2044 20.6608 47.2044 18.8956C45.6379 18.5229 43.3829 18.1166 40.7959 18.1133C38.3417 17.9302 33.8593 19.0176 34.0343 23.295C33.8334 25.9918 35.8357 28.3385 38.8876 28.1907ZM66.5756 31.8931C65.3023 32.0087 64.7094 31.1125 64.5215 30.2274L56.4542 3.78106C56.2971 3.33453 56.1934 2.87355 56.1432 2.40292C56.1134 2.2089 56.1626 2.01109 56.2798 1.85298C56.3971 1.69486 56.5728 1.58936 56.7685 1.55966C56.8074 1.55323 56.4234 1.55966 60.3729 1.55966C61.7952 1.41831 62.2585 2.52821 62.4059 3.22531L68.1923 25.8457L73.564 3.22531C73.6499 2.70811 74.0403 1.44723 75.6375 1.58054H78.4173C78.7689 1.55163 80.2171 1.50023 80.4714 3.24619L85.8852 26.1557L91.858 3.24619C91.9357 2.89603 92.2986 1.41992 93.912 1.58054H97.1066C97.2442 1.55966 98.1028 1.45044 97.957 2.95868C97.8874 3.25583 98.5094 1.24645 89.4118 30.2483C89.2256 31.1333 88.631 32.0296 87.3578 31.914H84.3301C82.5579 32.0987 82.3036 30.3624 82.276 30.1873L76.9043 8.16121L71.5942 30.1648C71.5682 30.3399 71.3139 32.0762 69.5401 31.8915H66.5756V31.8931ZM110.878 32.7974C109.925 32.799 105.383 32.7492 101.586 30.8233C101.207 30.6645 100.885 30.398 100.66 30.0574C100.435 29.7168 100.317 29.3176 100.321 28.9103V27.1837C100.321 25.8264 101.325 26.0754 101.751 26.2376C103.377 26.8897 104.421 27.3844 106.418 27.7796C112.355 28.989 114.966 27.4101 115.606 27.06C117.736 25.8055 117.905 22.9352 116.457 21.4462C114.759 20.0344 113.949 19.9814 107.85 18.0732C107.098 17.866 100.771 15.8871 100.756 9.66303C100.657 5.12707 104.814 0.639297 112.018 0.67624C114.071 0.674634 119.539 1.33961 121.02 3.18515C121.239 3.52085 121.347 3.91598 121.331 4.31593V5.93982C121.331 6.65298 121.069 7.00956 120.542 7.00956C119.293 6.87142 117.077 5.21541 112.579 5.28287C111.462 5.22505 106.117 5.42904 106.356 9.2936C106.287 12.339 110.667 13.481 111.168 13.6127C117.074 15.3747 119.049 15.6671 121.393 18.3639C124.169 21.9377 122.672 26.1219 122.097 27.2688C119.006 33.2905 111.014 32.8006 110.878 32.7974ZM117.39 49.6402C106.045 57.9475 89.5771 62.3695 75.516 62.3695C56.5434 62.4935 38.2102 55.5763 24.1203 42.9776C23.0624 42.0315 23.9955 40.7353 25.2818 41.4565C40.9117 50.3215 58.608 54.9794 76.6143 54.968C90.061 54.8965 103.361 52.1918 115.75 47.0092C117.659 46.2061 119.277 48.262 117.39 49.6402ZM122.118 44.2931C120.667 42.4427 112.515 43.4289 108.866 43.861C107.766 43.9847 107.579 43.0386 108.576 42.3399C115.067 37.8152 125.728 39.1114 126.952 40.6325C128.175 42.1536 126.62 52.745 120.544 57.8046C119.611 58.5868 118.718 58.174 119.133 57.146C120.5 53.7328 123.57 46.1451 122.118 44.2931Z" fill="#737373"/>
</g>
</g>
<defs>
<clipPath id="clip0_1_6933">
<rect width="151" height="62" fill="white" transform="translate(0 0.5)"/>
</clipPath>
<clipPath id="clip1_1_6933">
<rect width="104" height="62" fill="white" transform="translate(23.5 0.5)"/>
</clipPath>
</defs>
</svg>
