<svg width="149" height="73" viewBox="0 0 149 73" fill="none" xmlns="http://www.w3.org/2000/svg">
<g clip-path="url(#clip0_1_6936)">
<g clip-path="url(#clip1_1_6936)">
<path d="M104.926 28.1617C102.531 28.1617 100.424 29.1559 98.8748 30.7113C93.1748 26.7505 85.495 24.2009 76.9849 23.9283L81.4076 3.9158L95.49 7.09085C95.49 10.5546 98.3 13.3768 101.749 13.3768C105.261 13.3768 108.087 10.4744 108.087 7.01068C108.087 3.54698 105.277 0.644531 101.749 0.644531C99.29 0.644531 97.1664 2.13585 96.1126 4.17237L80.5614 0.708674C79.779 0.500211 79.0126 1.06146 78.8051 1.8472L73.9513 23.9122C65.5051 24.265 57.9051 26.8147 52.1891 30.7755C50.6404 29.1559 48.453 28.1617 46.058 28.1617C37.1807 28.1617 34.2748 40.1243 42.4017 44.2133C42.1143 45.4802 41.9866 46.8271 41.9866 48.1741C41.9866 61.612 57.0589 72.5002 75.5639 72.5002C94.1488 72.5002 109.221 61.612 109.221 48.1741C109.221 46.8271 109.077 45.416 108.726 44.1492C116.693 40.0441 113.755 28.1617 104.926 28.1617ZM55.2866 45.0632C55.2866 41.5354 58.0967 38.6971 61.6252 38.6971C65.074 38.6971 67.8841 41.5194 67.8841 45.0632C67.8841 48.5269 65.074 51.3492 61.6252 51.3492C58.1126 51.3652 55.2866 48.5269 55.2866 45.0632ZM89.5026 60.0565C83.6908 65.8935 67.2933 65.8935 61.4816 60.0565C60.8429 59.4953 60.8429 58.5011 61.4816 57.8597C62.0404 57.2984 63.0303 57.2984 63.5891 57.8597C68.0278 62.4298 82.7488 62.51 87.379 57.8597C87.9379 57.2984 88.9278 57.2984 89.4866 57.8597C90.1412 58.5011 90.1412 59.4953 89.5026 60.0565ZM89.3748 51.3652C85.9261 51.3652 83.116 48.543 83.116 45.0793C83.116 41.5514 85.9261 38.7131 89.3748 38.7131C92.8874 38.7131 95.7135 41.5354 95.7135 45.0793C95.6975 48.5269 92.8874 51.3652 89.3748 51.3652Z" fill="#737373"/>
</g>
</g>
<defs>
<clipPath id="clip0_1_6936">
<rect width="151" height="72" fill="white" transform="translate(0 0.5)"/>
</clipPath>
<clipPath id="clip1_1_6936">
<rect width="76" height="72" fill="white" transform="translate(37.5 0.5)"/>
</clipPath>
</defs>
</svg>
